<?xml version="1.0" standalone="no"?>
<!DOCTYPE svg PUBLIC "-//W3C//DTD SVG 20010904//EN"
 "http://www.w3.org/TR/2001/REC-SVG-20010904/DTD/svg10.dtd">
<svg version="1.0" xmlns="http://www.w3.org/2000/svg"
 width="1200.000000pt" height="1200.000000pt" viewBox="0 0 1200.000000 1200.000000"
 preserveAspectRatio="xMidYMid meet">
<metadata>
Created by potrace 1.14, written by Peter Selinger 2001-2017
</metadata>
<g transform="translate(0.000000,1200.000000) scale(0.100000,-0.100000)"
fill="#000000" stroke="none">
<path d="M5870 10459 c-418 -25 -800 -92 -1075 -186 -101 -35 -303 -127 -353
-161 -15 -10 -73 -33 -130 -51 -215 -70 -428 -234 -583 -451 -121 -168 -226
-428 -270 -662 -11 -62 -23 -123 -25 -135 -3 -14 -13 -24 -27 -27 -12 -2 -110
-18 -217 -35 -735 -117 -1140 -308 -1140 -539 0 -51 40 -176 76 -238 36 -61
150 -165 230 -210 190 -106 487 -159 769 -136 93 8 112 7 120 -6 6 -8 24 -36
40 -61 21 -32 46 -54 80 -71 l50 -25 1 -230 c1 -207 17 -482 30 -527 5 -16 1
-16 -43 3 -273 117 -532 24 -658 -235 -75 -153 -89 -222 -90 -431 0 -158 3
-189 23 -258 26 -91 59 -159 114 -238 l38 -56 -16 -63 c-37 -147 30 -282 174
-348 47 -21 65 -24 131 -20 50 3 90 12 117 26 60 31 121 97 142 155 18 47 23
52 53 55 66 5 185 35 236 59 28 13 75 45 103 70 28 25 52 44 54 42 1 -2 24
-40 51 -84 195 -318 507 -608 818 -761 l77 -39 -132 -27 c-329 -68 -533 -169
-589 -293 -36 -78 -17 -207 47 -323 l34 -63 -66 -73 c-37 -40 -86 -102 -108
-138 -39 -62 -52 -73 -231 -193 -242 -163 -365 -253 -440 -324 -33 -31 -94
-84 -135 -118 -77 -63 -104 -94 -133 -150 -19 -35 -22 -98 -8 -136 8 -20 -2
-39 -75 -142 -220 -307 -453 -547 -639 -660 -65 -39 -169 -75 -217 -75 -20 0
-40 -10 -60 -31 -30 -29 -30 -32 -26 -100 5 -59 14 -87 62 -182 30 -63 71
-131 89 -152 l34 -39 -112 -230 c-192 -394 -373 -816 -466 -1083 l-18 -53 42
0 42 0 64 168 c137 361 366 867 540 1192 79 148 90 165 112 162 34 -3 284
-128 414 -207 141 -85 311 -208 398 -286 37 -33 159 -167 271 -297 112 -131
266 -308 341 -395 109 -126 136 -162 131 -180 -3 -12 -26 -52 -50 -89 l-46
-68 2150 0 2150 0 0 29 c0 44 15 46 40 6 l22 -35 208 0 209 0 168 118 c92 65
222 155 288 199 66 44 132 94 147 109 46 50 132 196 183 313 l50 113 28 -63
c36 -79 286 -666 313 -734 20 -48 22 -50 62 -53 23 -2 42 1 42 6 0 21 -233
573 -369 875 -17 38 -31 76 -31 85 0 10 16 66 35 127 40 125 52 202 37 232 -6
11 -26 26 -44 32 -133 50 -170 79 -240 186 -65 99 -265 497 -381 757 -65 145
-74 173 -70 208 5 36 2 45 -24 73 -16 18 -74 91 -129 162 -136 180 -248 307
-405 462 -159 156 -263 244 -419 354 l-115 80 -12 86 c-14 95 -45 171 -90 223
-24 28 -31 47 -35 96 -3 33 -16 80 -28 104 -53 103 -191 213 -387 308 l-96 46
34 15 c341 150 540 278 760 489 94 90 221 234 281 320 l16 24 71 -26 c39 -14
111 -31 160 -38 89 -11 89 -12 95 -43 9 -47 60 -120 107 -155 151 -109 361
-60 447 104 22 43 26 64 27 131 0 57 -5 92 -18 121 l-19 41 36 50 c172 239
192 634 47 921 -92 182 -211 268 -398 288 l-63 7 8 41 c4 22 7 217 7 431 -1
424 -7 499 -65 805 -16 85 -36 204 -45 264 -58 412 -223 847 -449 1191 -353
535 -823 848 -1441 957 -130 22 -584 32 -825 17z m1318 -1376 c53 -76 171
-359 155 -373 -4 -4 -17 -11 -28 -14 -19 -5 -24 5 -54 97 -34 102 -77 199
-112 249 -11 14 -19 40 -19 57 0 28 2 31 19 21 11 -5 28 -22 39 -37z m-390 7
c119 -13 221 -42 260 -75 36 -30 91 -142 127 -258 23 -74 26 -90 14 -98 -41
-25 -391 -94 -639 -124 -171 -22 -666 -31 -845 -16 -177 15 -321 32 -334 40
-7 5 -8 33 -1 91 25 219 76 282 287 360 102 36 248 67 379 79 142 12 638 13
752 1z m-1384 -97 c-110 -200 -115 -221 -121 -475 -3 -109 -9 -198 -14 -198
-18 0 -24 60 -24 235 0 155 3 191 23 263 33 122 64 177 119 212 26 17 49 30
51 30 2 0 -13 -30 -34 -67z m2321 -744 c-116 -61 -154 -156 -94 -240 33 -46
74 -62 184 -70 55 -5 134 -11 176 -15 91 -8 138 5 174 47 49 59 19 167 -68
247 -44 40 -45 42 -21 42 104 0 360 -59 411 -95 48 -34 107 -409 119 -765 7
-180 6 -188 -19 -276 -55 -189 -131 -318 -256 -437 -132 -123 -313 -200 -504
-214 -88 -6 -117 -18 -117 -48 0 -29 44 -43 155 -48 261 -14 472 -119 555
-279 l24 -46 -18 -54 c-10 -30 -33 -83 -50 -118 -29 -62 -37 -69 -146 -143
-136 -93 -244 -158 -397 -239 l-111 -59 29 71 c34 81 69 209 69 254 0 42 -32
92 -64 100 -17 4 -64 -7 -143 -33 -197 -66 -496 -120 -783 -141 -537 -40
-1328 47 -1736 191 -133 47 -129 44 -104 83 23 38 26 66 8 84 -25 25 -47 12
-91 -56 -24 -37 -62 -82 -83 -99 -57 -45 -165 -102 -242 -128 -73 -24 -94 -44
-76 -72 12 -19 53 -22 109 -9 29 7 33 3 95 -79 36 -48 118 -138 182 -201 65
-63 116 -114 115 -114 -33 0 -355 160 -495 246 -129 79 -333 224 -339 241 -10
26 81 159 171 249 176 177 423 302 686 347 95 17 120 35 96 71 -11 18 -28 22
-107 27 -475 32 -854 411 -929 928 -20 133 -8 346 24 456 15 49 32 95 38 102
9 11 191 74 335 117 l53 15 6 -25 c4 -14 22 -37 42 -52 33 -25 42 -27 121 -26
47 1 99 7 114 13 16 6 65 11 109 11 97 0 144 22 178 82 18 31 21 49 17 83 l-6
43 77 8 c47 4 115 2 177 -5 212 -27 368 -40 580 -52 l220 -11 125 -45 c69 -24
166 -55 216 -68 87 -23 94 -23 149 -9 68 18 206 72 355 139 203 92 212 93 495
94 l250 1 -40 -21z m-970 -96 c-117 -47 -161 -50 -255 -20 l-75 24 55 6 c50 6
279 22 340 25 14 0 -15 -15 -65 -35z m-2725 -301 c-32 -121 -43 -259 -30 -386
49 -496 334 -884 755 -1027 45 -15 73 -30 65 -33 -174 -63 -240 -95 -355 -171
-148 -98 -259 -215 -342 -360 -75 -132 -108 -239 -125 -412 l-12 -112 -28 42
c-272 403 -439 1002 -467 1672 -12 295 10 590 48 635 9 11 68 43 131 71 119
54 374 159 377 155 1 -1 -7 -34 -17 -74z m4561 -1110 c-7 -81 -19 -190 -27
-242 -16 -94 -70 -319 -80 -329 -2 -3 -19 13 -37 35 -80 97 -177 162 -314 208
l-66 22 62 23 c173 65 366 244 447 415 10 21 20 32 22 26 2 -6 -1 -78 -7 -158z
m-5263 -92 c71 -25 132 -76 132 -110 0 -90 109 -513 179 -700 22 -57 39 -105
37 -107 -11 -11 -176 -24 -242 -19 -94 7 -136 19 -182 53 -45 34 -52 58 -62
198 -13 195 -62 350 -146 462 -58 78 -101 96 -124 53 -8 -15 -1 -29 35 -71
l45 -53 -57 -27 c-61 -28 -92 -55 -117 -103 -16 -32 -12 -52 15 -67 15 -8 24
-4 45 16 23 24 29 25 60 15 45 -15 84 -58 111 -122 22 -56 18 -68 -21 -68 -11
0 -39 -9 -63 -21 -80 -39 -116 -143 -91 -263 16 -74 45 -99 77 -67 17 17 18
25 10 53 -14 49 -11 135 5 167 17 32 54 51 100 51 33 0 33 0 40 -59 17 -152
144 -231 371 -230 50 0 122 5 162 12 l72 13 17 -39 c18 -39 18 -39 -7 -58 -45
-34 -169 -90 -246 -110 -97 -24 -100 -24 -107 7 -19 73 -97 152 -184 184 -63
24 -75 24 -116 5 -56 -27 -83 -104 -55 -157 10 -18 8 -19 -13 -13 -87 28 -156
95 -212 210 -50 102 -67 174 -73 316 -6 141 4 222 43 340 57 176 158 288 293
326 63 18 191 10 269 -17z m5535 -19 c118 -57 205 -184 254 -369 35 -132 37
-327 4 -447 -22 -85 -82 -213 -110 -239 -16 -15 -23 -13 -75 15 -67 37 -149
47 -224 30 -96 -24 -139 -109 -90 -181 l24 -36 -85 9 c-78 7 -254 56 -275 77
-4 4 7 35 26 69 19 34 37 58 41 55 10 -10 195 15 235 32 103 42 162 122 162
217 l0 50 45 -5 c95 -11 126 -66 105 -190 -13 -76 -4 -101 34 -96 29 4 47 47
53 133 5 66 3 80 -21 127 -31 63 -59 85 -127 101 -46 11 -49 14 -44 37 27 115
143 204 183 140 26 -41 80 -13 68 35 -10 39 -88 112 -135 126 -23 7 -41 16
-41 21 0 5 18 28 40 52 42 45 48 64 28 84 -61 61 -197 -141 -244 -360 -8 -40
-19 -126 -23 -191 -9 -136 -19 -157 -95 -195 -57 -28 -193 -44 -183 -21 3 8
26 61 52 118 94 212 182 518 207 720 5 47 12 92 14 100 7 22 140 10 197 -18z
m-3881 -795 c195 -87 574 -165 1023 -213 233 -25 819 -25 1010 0 266 34 600
108 685 152 26 13 40 11 40 -6 0 -9 -79 -71 -205 -162 -76 -55 -80 -57 -85
-36 -8 31 -35 47 -57 33 -13 -8 -18 -25 -18 -58 0 -41 -3 -48 -33 -66 -51 -31
-34 -90 23 -76 14 4 34 1 45 -6 27 -17 54 0 58 38 3 24 22 42 120 111 64 45
118 81 120 78 2 -2 -14 -41 -36 -87 -131 -281 -522 -477 -1082 -544 -183 -21
-567 -21 -710 0 -365 55 -682 218 -955 491 -86 86 -205 228 -205 246 0 3 16
13 35 22 l36 17 31 -38 c49 -57 157 -158 215 -199 52 -38 53 -39 50 -87 -1
-37 2 -51 16 -60 22 -14 49 2 58 35 3 13 10 23 15 22 5 -2 37 -13 70 -25 53
-19 64 -20 78 -8 20 16 17 50 -4 61 -8 4 -41 19 -73 33 l-59 26 7 48 c5 37 3
51 -9 61 -28 24 -55 8 -70 -42 -6 -17 -8 -17 -38 4 -18 13 -76 66 -128 117
l-95 94 30 24 c17 13 33 24 36 24 4 0 31 -11 61 -24z m-1794 -285 c110 -57
150 -175 98 -287 -76 -163 -304 -164 -387 -3 -21 42 -27 153 -8 164 21 13 49
-26 49 -69 0 -24 10 -57 23 -80 75 -132 287 -79 287 71 0 85 -43 140 -128 162
-29 8 -42 17 -42 30 0 10 3 21 7 24 12 13 64 7 101 -12z m5675 -17 c80 -27
147 -120 147 -205 0 -130 -143 -244 -265 -210 -74 20 -141 78 -159 137 -5 18
-2 23 21 27 20 4 31 1 38 -10 65 -104 167 -132 245 -66 105 88 70 238 -63 274
-32 9 -48 7 -84 -6 -40 -16 -47 -16 -60 -2 -32 32 25 73 108 76 14 1 46 -6 72
-15z m-5787 -200 c27 -9 56 -18 64 -21 22 -7 -16 -33 -47 -33 -24 0 -73 40
-73 60 0 13 -3 13 56 -6z m5790 -30 c-9 -33 -59 -55 -97 -42 -50 17 -42 34 29
60 37 14 69 21 70 16 2 -5 1 -20 -2 -34z m-3418 -1018 c125 -79 293 -146 429
-172 146 -27 416 -5 546 45 l29 11 -4 -232 c-3 -217 -5 -235 -25 -268 -32 -52
-72 -168 -97 -283 -7 -28 -8 -27 -48 35 -23 35 -83 104 -132 153 -78 77 -112
102 -233 170 -232 130 -395 264 -482 399 -38 58 -40 65 -34 114 3 29 7 52 10
52 2 0 20 -11 41 -24z m2368 -802 c285 -203 576 -495 814 -814 35 -47 76 -99
93 -117 l29 -31 -25 -79 c-13 -43 -33 -132 -42 -198 -10 -66 -41 -214 -70
-330 -59 -230 -171 -615 -185 -629 -5 -5 -22 1 -39 13 -52 37 -231 118 -346
156 -441 147 -1055 224 -1684 212 -390 -7 -630 -39 -976 -127 -333 -85 -684
-228 -898 -366 -37 -24 -70 -44 -72 -44 -3 0 -5 9 -5 19 0 32 -48 202 -80 286
-142 366 -476 853 -824 1201 -202 201 -240 219 -361 169 -33 -14 -63 -25 -67
-25 -15 0 -8 55 11 86 10 17 49 57 87 90 37 32 98 87 134 120 133 123 564 423
586 408 159 -109 641 -479 824 -632 108 -91 145 -114 267 -174 160 -78 433
-172 618 -213 224 -50 365 -66 618 -72 299 -7 395 4 482 54 33 19 114 64 180
100 191 105 388 231 469 302 94 82 188 196 245 296 54 93 109 249 117 333 4
34 10 62 14 62 5 0 43 -25 86 -56z m-4510 -774 c78 -59 269 -257 387 -403 214
-262 356 -477 477 -722 131 -265 177 -438 167 -625 -7 -130 -33 -225 -97 -355
-47 -98 -198 -330 -214 -330 -4 0 -23 50 -42 112 -101 335 -260 656 -450 913
-99 134 -351 385 -469 468 -74 52 -95 63 -118 58 -21 -4 -46 4 -94 29 -36 19
-89 42 -119 52 -33 10 -54 23 -57 34 -7 28 -54 41 -132 37 l-70 -3 150 150
c142 142 265 290 400 482 55 79 65 88 125 113 36 16 74 29 84 29 11 1 43 -17
72 -39z m5559 -535 c97 -214 258 -534 325 -645 28 -47 69 -103 90 -125 l40
-40 -20 -83 c-21 -86 -71 -228 -120 -336 -21 -48 -34 -65 -51 -68 -16 -2 -31
-21 -54 -65 -62 -121 -180 -248 -375 -403 -100 -79 -425 -300 -441 -300 -5 0
-27 28 -50 61 -38 56 -41 65 -31 93 5 17 55 162 111 321 235 672 434 1362 478
1650 9 63 18 114 19 112 1 -1 37 -78 79 -172z"/>
<path d="M4785 7341 c-168 -78 -164 -314 7 -385 134 -56 288 48 288 194 0 150
-160 253 -295 191z"/>
<path d="M7805 7341 c-168 -78 -164 -314 7 -385 134 -56 288 48 288 194 0 150
-160 253 -295 191z"/>
<path d="M6365 6960 c-93 -20 -206 -74 -225 -110 -5 -10 -7 -25 -4 -34 11 -30
41 -27 107 9 73 40 172 65 264 65 42 0 66 5 77 16 19 18 19 20 6 45 -9 17 -21
19 -98 18 -48 -1 -105 -5 -127 -9z"/>
<path d="M6371 6824 c-79 -21 -165 -70 -214 -123 -32 -34 -58 -51 -101 -64
-54 -17 -71 -30 -182 -137 -44 -42 -38 -116 13 -162 25 -23 99 -55 146 -63 54
-10 71 7 62 62 -5 32 -3 43 7 43 21 0 70 -36 104 -76 26 -30 36 -36 57 -31 32
9 40 32 23 65 -38 72 -149 139 -212 128 -37 -7 -64 -38 -64 -73 0 -28 -6 -28
-48 -3 -43 27 -41 60 5 72 22 6 34 17 41 37 6 17 24 37 40 45 40 21 140 36
239 36 61 0 86 4 97 16 19 19 20 25 4 47 -10 12 -32 17 -83 19 l-70 3 49 32
c59 39 159 63 263 63 98 0 183 -22 248 -63 l50 -32 -55 -3 c-51 -3 -80 -18
-80 -43 0 -24 35 -39 93 -39 164 -1 284 -36 312 -91 15 -28 23 -32 98 -44 30
-5 37 -10 37 -29 0 -13 -7 -29 -15 -36 -13 -10 -15 -9 -15 8 0 37 -27 52 -90
52 -96 0 -215 -53 -255 -114 -35 -53 24 -85 76 -42 34 29 70 49 107 61 21 6
22 4 16 -19 -13 -53 30 -68 137 -45 95 21 148 104 115 183 -16 39 -34 51 -91
61 -25 5 -53 20 -75 41 -39 36 -104 69 -163 79 -28 6 -52 22 -92 65 -60 62
-130 101 -213 119 -74 15 -256 13 -321 -5z"/>
<path d="M5493 5399 c-45 -46 25 -89 225 -139 30 -8 42 -16 42 -29 0 -44 57
-54 75 -14 6 14 16 21 25 18 116 -33 643 -41 830 -11 258 40 413 81 445 116
36 40 -5 86 -52 59 -62 -37 -318 -89 -533 -110 -137 -13 -440 -6 -595 14 -89
12 -89 12 -90 41 0 53 -56 62 -75 11 -11 -30 -31 -28 -160 17 -116 40 -123 41
-137 27z"/>
</g>
</svg>
